[h264 @ 0x55ae29b36180] Reinit context to 1280x720, pix_fmt: yuv420p
Input #0, mov,mp4,m4a,3gp,3g2,mj2, from '/var/www/html/project/media/video/original/lv_0_20230315150613.mp4':
  Metadata:
    major_brand     : isom
    minor_version   : 512
    compatible_brands: isomiso2avc1mp41
    Hw              : 1
                    : 
    LvMetaInfo      : {"data":{"adsTemplateId":"","appVersion":"7.8.0","capabilityName":"","ccTtVid":"","draftInfo":{"adjust":0,"aiMatting":0,"audioToText":0,"chroma":0,"coverTemplateId":"","curveSpeed":0,"faceEffectId":"","filterId":"","gameplayAlgorithm":"","graphs":0,"keyfr
    bitRate         : 10000000
                    : 
    copyright       : ea4bbab89c9770d58b3ff1a5160cadb6
    maxrate         : 30000000
                    : 
    te_is_reencode  : 1
                    : 
    encoder         : bytevehwavc
  Duration: 00:00:53.85, start: 0.000000, bitrate: 11077 kb/s
    Stream #0:0(und): Video: h264 (High), 1 reference frame (avc1 / 0x31637661), yuv420p(tv, bt709, left), 1280x720, 10954 kb/s, 30 fps, 30 tbr, 1000k tbn, 2000k tbc (default)
    Metadata:
      handler_name    : VideoHandler
    Stream #0:1(und): Audio: aac (LC) (mp4a / 0x6134706D), 44100 Hz, stereo, fltp, 128 kb/s (default)
    Metadata:
      handler_name    : SoundHandler
Input #1, png_pipe, from '/var/www/html/project/static/images/templates/logo.png':
  Duration: N/A, bitrate: N/A
    Stream #1:0: Video: png, 1 reference frame, rgba(pc), 1920x1080 [SAR 2835:2835 DAR 16:9], 25 tbr, 25 tbn, 25 tbc
[h264 @ 0x55ae29b4d9c0] Reinit context to 1280x720, pix_fmt: yuv420p
Input #2, mov,mp4,m4a,3gp,3g2,mj2, from '/var/www/html/project/static/images/templates/Codino.mp4':
  Metadata:
    major_brand     : mp42
    minor_version   : 1
    compatible_brands: isommp41mp42
    creation_time   : 2021-07-11T07:02:58.000000Z
  Duration: 00:00:02.00, start: 0.000000, bitrate: 1007 kb/s
    Stream #2:0(ita): Audio: aac (LC) (mp4a / 0x6134706D), 44100 Hz, stereo, fltp, 102 kb/s (default)
    Metadata:
      creation_time   : 2021-07-11T07:02:58.000000Z
      handler_name    : Core Media Audio
    Stream #2:1(und): Video: h264 (High), 1 reference frame (avc1 / 0x31637661), yuv420p(tv, bt709, progressive, left), 1280x720 [SAR 1:1 DAR 16:9], 813 kb/s, 25 fps, 25 tbr, 25k tbn, 50k tbc (default)
    Metadata:
      creation_time   : 2021-07-11T07:02:58.000000Z
      handler_name    : Core Media Video
[Parsed_scale_0 @ 0x55ae29bd2980] w:640 h:360 flags:'bilinear' interl:0
[Parsed_scale_2 @ 0x55ae29b96980] w:640 h:360 flags:'bilinear' interl:0
[Parsed_scale_4 @ 0x55ae29be5280] w:640 h:360 flags:'bilinear' interl:0
Stream mapping:
  Stream #0:0 (h264) -> scale
  Stream #0:1 (aac) -> concat:in0:a0
  Stream #1:0 (png) -> scale
  Stream #2:0 (aac) -> concat:in1:a0
  Stream #2:1 (h264) -> scale
  concat:out:v0 -> Stream #0:0 (libx264)
  concat:out:a0 -> Stream #0:1 (aac)
Press [q] to stop, [?] for help
[h264 @ 0x55ae29c31980] Reinit context to 1280x720, pix_fmt: yuv420p
[h264 @ 0x55ae2a012dc0] Reinit context to 1280x720, pix_fmt: yuv420p
[Parsed_scale_0 @ 0x55ae2aeb9f80] w:640 h:360 flags:'bilinear' interl:0
[Parsed_scale_2 @ 0x55ae2aec2500] w:640 h:360 flags:'bilinear' interl:0
[Parsed_scale_4 @ 0x55ae2aec3740] w:640 h:360 flags:'bilinear' interl:0
[graph 0 input from stream 0:0 @ 0x55ae2aec7f40] w:1280 h:720 pixfmt:yuv420p tb:1/1000000 fr:30/1 sar:0/1 sws_param:flags=2
[graph 0 input from stream 1:0 @ 0x55ae2aec8fc0] w:1920 h:1080 pixfmt:rgba tb:1/25 fr:25/1 sar:2835/2835 sws_param:flags=2
[graph 0 input from stream 2:1 @ 0x55ae2aeca040] w:1280 h:720 pixfmt:yuv420p tb:1/25000 fr:25/1 sar:1/1 sws_param:flags=2
[graph_0_in_0_1 @ 0x55ae2aecb000] tb:1/44100 samplefmt:fltp samplerate:44100 chlayout:0x3
[graph_0_in_2_0 @ 0x55ae2aecc140] tb:1/44100 samplefmt:fltp samplerate:44100 chlayout:0x3
[Parsed_scale_0 @ 0x55ae2aeb9f80] w:1280 h:720 fmt:yuv420p sar:0/1 -> w:640 h:360 fmt:yuv420p sar:0/1 flags:0x2
[Parsed_setsar_1 @ 0x55ae2aeba1c0] w:640 h:360 sar:0/1 dar:16/9 -> sar:1/1 dar:16/9
[Parsed_scale_2 @ 0x55ae2aec2500] w:1920 h:1080 fmt:rgba sar:2835/2835 -> w:640 h:360 fmt:yuva420p sar:1/1 flags:0x2
[Parsed_setsar_3 @ 0x55ae2aec2ac0] w:640 h:360 sar:1/1 dar:16/9 -> sar:1/1 dar:16/9
[Parsed_overlay_6 @ 0x55ae2aec4e80] main w:640 h:360 fmt:yuv420p overlay w:640 h:360 fmt:yuva420p
[Parsed_overlay_6 @ 0x55ae2aec4e80] [framesync @ 0x55ae2aec4fe8] Selected 1/1000000 time base
[Parsed_overlay_6 @ 0x55ae2aec4e80] [framesync @ 0x55ae2aec4fe8] Sync level 2
[Parsed_scale_4 @ 0x55ae2aec3740] w:1280 h:720 fmt:yuv420p sar:1/1 -> w:640 h:360 fmt:yuv420p sar:1/1 flags:0x2
[Parsed_setsar_5 @ 0x55ae2aec4200] w:640 h:360 sar:1/1 dar:16/9 -> sar:1/1 dar:16/9
[libx264 @ 0x55ae29b53540] using SAR=1/1
[libx264 @ 0x55ae29b53540] using cpu capabilities: MMX2 SSE2Fast SSSE3 SSE4.2 AVX FMA3 BMI2 AVX2
[libx264 @ 0x55ae29b53540] profile High, level 3.0
[libx264 @ 0x55ae29b53540] 264 - core 155 r2917 0a84d98 - H.264/MPEG-4 AVC codec - Copyleft 2003-2018 - http://www.videolan.org/x264.html - options: cabac=1 ref=1 deblock=1:0:0 analyse=0x3:0x113 me=hex subme=2 psy=1 psy_rd=1.00:0.00 mixed_ref=0 me_range=16 chroma_me=1 trellis=0 8x8dct=1 cqm=0 deadzone=21,11 fast_pskip=1 chroma_qp_offset=0 threads=11 lookahead_threads=2 sliced_threads=0 nr=0 decimate=1 interlaced=0 bluray_compat=0 constrained_intra=0 bframes=3 b_pyramid=2 b_adapt=1 b_bias=0 direct=1 weightb=1 open_gop=0 weightp=1 keyint=250 keyint_min=25 scenecut=40 intra_refresh=0 rc_lookahead=10 rc=crf mbtree=1 crf=18.0 qcomp=0.60 qpmin=0 qpmax=69 qpstep=4 ip_ratio=1.40 aq=1:1.00
Output #0, mp4, to '/var/www/html/project/media/video/watermarks/lv_0_20230315150613.mp4':
  Metadata:
    major_brand     : isom
    minor_version   : 512
    compatible_brands: isomiso2avc1mp41
    Hw              : 1
                    : 
    LvMetaInfo      : {"data":{"adsTemplateId":"","appVersion":"7.8.0","capabilityName":"","ccTtVid":"","draftInfo":{"adjust":0,"aiMatting":0,"audioToText":0,"chroma":0,"coverTemplateId":"","curveSpeed":0,"faceEffectId":"","filterId":"","gameplayAlgorithm":"","graphs":0,"keyfr
    bitRate         : 10000000
                    : 
    copyright       : ea4bbab89c9770d58b3ff1a5160cadb6
    maxrate         : 30000000
                    : 
    te_is_reencode  : 1
                    : 
    encoder         : Lavf58.29.100
    Stream #0:0: Video: h264 (libx264), 1 reference frame (avc1 / 0x31637661), yuv420p(progressive), 640x360 [SAR 1:1 DAR 16:9], q=-1--1, 30 fps, 15360 tbn, 30 tbc (default)
    Metadata:
      encoder         : Lavc58.54.100 libx264
    Side data:
      cpb: bitrate max/min/avg: 0/0/0 buffer size: 0 vbv_delay: -1
    Stream #0:1: Audio: aac (LC) (mp4a / 0x6134706D), 44100 Hz, stereo, fltp, delay 1024, 128 kb/s (default)
    Metadata:
      encoder         : Lavc58.54.100 aac
[Parsed_overlay_6 @ 0x55ae2aec4e80] [framesync @ 0x55ae2aec4fe8] Sync level 0
[Parsed_concat_7 @ 0x55ae2aec5f80] EOF on in0:v0, 1 streams left in segment.
[Parsed_concat_7 @ 0x55ae2aec5f80] EOF on in0:a0, 0 streams left in segment.
[Parsed_concat_7 @ 0x55ae2aec5f80] Segment finished at pts=53800635
[Parsed_concat_7 @ 0x55ae2aec5f80] EOF on in1:a0, 1 streams left in segment.
[Parsed_concat_7 @ 0x55ae2aec5f80] EOF on in1:v0, 0 streams left in segment.
[Parsed_concat_7 @ 0x55ae2aec5f80] Segment finished at pts=55819320
No more output streams to write to, finishing.
frame= 1664 fps=171 q=-1.0 Lsize=   13238kB time=00:00:55.82 bitrate=1942.8kbits/s speed=5.74x    
[AVIOContext @ 0x55ae29b34440] Statistics: 0 seeks, 20 writeouts
video:12305kB audio:876kB subtitle:0kB other streams:0kB global headers:0kB muxing overhead: 0.436525%
Input file #0 (/var/www/html/project/media/video/original/lv_0_20230315150613.mp4):
  Input stream #0:0 (video): 1614 packets read (73667040 bytes); 1614 frames decoded; 
  Input stream #0:1 (audio): 2319 packets read (861876 bytes); 2317 frames decoded (2372608 samples); 
  Total: 3933 packets (74528916 bytes) demuxed
Input file #1 (/var/www/html/project/static/images/templates/logo.png):
  Input stream #1:0 (video): 1 packets read (111578 bytes); 1 frames decoded; 
  Total: 1 packets (111578 bytes) demuxed
Input file #2 (/var/www/html/project/static/images/templates/Codino.mp4):
  Input stream #2:0 (audio): 89 packets read (26579 bytes); 87 frames decoded (89024 samples); 
  Input stream #2:1 (video): 50 packets read (203365 bytes); 50 frames decoded; 
  Total: 139 packets (229944 bytes) demuxed
Output file #0 (/var/www/html/project/media/video/watermarks/lv_0_20230315150613.mp4):
  Output stream #0:0 (video): 1664 frames encoded; 1664 packets muxed (12599929 bytes); 
  Output stream #0:1 (audio): 2404 frames encoded (2461632 samples); 2405 packets muxed (896905 bytes); 
  Total: 4069 packets (13496834 bytes) muxed
[AVIOContext @ 0x55ae29b99980] Statistics: 2 seeks, 55 writeouts
[libx264 @ 0x55ae29b53540] frame I:12    Avg QP:16.43  size: 50893
[libx264 @ 0x55ae29b53540] frame P:757   Avg QP:20.00  size: 11253
[libx264 @ 0x55ae29b53540] frame B:895   Avg QP:24.45  size:  3877
[libx264 @ 0x55ae29b53540] consecutive B-frames: 25.6%  6.2%  5.4% 62.7%
[libx264 @ 0x55ae29b53540] mb I  I16..4: 10.0%  5.1% 84.9%
[libx264 @ 0x55ae29b53540] mb P  I16..4:  0.6%  1.3%  2.2%  P16..4: 45.4% 11.6% 13.7%  0.0%  0.0%    skip:25.3%
[libx264 @ 0x55ae29b53540] mb B  I16..4:  0.2%  0.2%  0.1%  B16..8: 15.4% 10.2%  4.8%  direct:13.4%  skip:55.7%  L0:25.4% L1:33.5% BI:41.1%
[libx264 @ 0x55ae29b53540] 8x8 transform intra:25.9% inter:27.4%
[libx264 @ 0x55ae29b53540] coded y,uvDC,uvAC intra: 79.5% 69.0% 39.2% inter: 29.1% 11.1% 1.9%
[libx264 @ 0x55ae29b53540] i16 v,h,dc,p: 28% 52% 11%  9%
[libx264 @ 0x55ae29b53540] i8 v,h,dc,ddl,ddr,vr,hd,vl,hu: 24% 41% 16%  2%  3%  3%  4%  3%  5%
[libx264 @ 0x55ae29b53540] i4 v,h,dc,ddl,ddr,vr,hd,vl,hu: 24% 24% 12%  5%  6%  6%  8%  5%  9%
[libx264 @ 0x55ae29b53540] i8c dc,h,v,p: 49% 31% 15%  5%
[libx264 @ 0x55ae29b53540] Weighted P-Frames: Y:5.7% UV:0.3%
[libx264 @ 0x55ae29b53540] kb/s:1806.34
[aac @ 0x55ae29b59c00] Qavg: 1954.394
[AVIOContext @ 0x55ae29b3d3c0] Statistics: 118027761 bytes read, 2588 seeks
[AVIOContext @ 0x55ae29b83ac0] Statistics: 111578 bytes read, 0 seeks
[AVIOContext @ 0x55ae29c33480] Statistics: 1530915 bytes read, 42 seeks
